<?xml version="1.0" encoding="UTF-8"?>
<!DOCTYPE svg PUBLIC "-//W3C//DTD SVG 1.1//EN" "http://www.w3.org/Graphics/SVG/1.1/DTD/svg11.dtd">
<svg xmlns="http://www.w3.org/2000/svg" version="1.1" width="478px" height="512px" style="shape-rendering:geometricPrecision; text-rendering:geometricPrecision; image-rendering:optimizeQuality; fill-rule:evenodd; clip-rule:evenodd" xmlns:xlink="http://www.w3.org/1999/xlink">
<g><path style="opacity:0.997" fill="#dc0031" d="M 235.5,-0.5 C 236.5,-0.5 237.5,-0.5 238.5,-0.5C 238.82,18.9094 238.487,38.2428 237.5,57.5C 188.694,167.917 139.694,278.25 90.5,388.5C 89.9569,388.56 89.6236,388.893 89.5,389.5C 108.329,390.828 126.996,390.828 145.5,389.5C 154.964,365.111 164.631,340.778 174.5,316.5C 195.823,315.5 217.156,315.167 238.5,315.5C 238.5,380.833 238.5,446.167 238.5,511.5C 237.833,511.5 237.167,511.5 236.5,511.5C 169.578,474.431 102.745,437.098 36,399.5C 24.1424,295.316 11.9758,191.316 -0.5,87.5C -0.5,86.1667 -0.5,84.8333 -0.5,83.5C 78.4571,56.0716 157.124,28.0716 235.5,-0.5 Z"/></g>
<g><path style="opacity:1" fill="#c3002f" d="M 238.5,-0.5 C 239.5,-0.5 240.5,-0.5 241.5,-0.5C 319.876,28.0716 398.543,56.0716 477.5,83.5C 477.5,84.8333 477.5,86.1667 477.5,87.5C 465.024,191.316 452.858,295.316 441,399.5C 374.255,437.098 307.422,474.431 240.5,511.5C 239.833,511.5 239.167,511.5 238.5,511.5C 238.5,446.167 238.5,380.833 238.5,315.5C 259.503,315.333 280.503,315.5 301.5,316C 311.645,340.454 321.645,364.954 331.5,389.5C 349.659,390.497 367.992,390.83 386.5,390.5C 386.737,389.209 386.404,388.209 385.5,387.5C 337.953,279.404 290.12,171.404 242,63.5C 241.186,60.8233 239.686,58.8233 237.5,57.5C 238.487,38.2428 238.82,18.9094 238.5,-0.5 Z"/></g>
<g><path style="opacity:1" fill="#fefefe" d="M 237.5,57.5 C 239.686,58.8233 241.186,60.8233 242,63.5C 290.12,171.404 337.953,279.404 385.5,387.5C 367.864,389.487 349.864,390.153 331.5,389.5C 321.645,364.954 311.645,340.454 301.5,316C 280.503,315.5 259.503,315.333 238.5,315.5C 217.156,315.167 195.823,315.5 174.5,316.5C 164.631,340.778 154.964,365.111 145.5,389.5C 126.992,389.83 108.659,389.497 90.5,388.5C 139.694,278.25 188.694,167.917 237.5,57.5 Z"/></g>
<g><path style="opacity:1" fill="#dd0432" d="M 237.5,166.5 C 238.498,200.329 238.832,234.329 238.5,268.5C 224.127,269.149 210.127,268.482 196.5,266.5C 210.168,233.162 223.835,199.828 237.5,166.5 Z"/></g>
<g><path style="opacity:1" fill="#c30430" d="M 237.5,166.5 C 238.566,165.308 239.399,165.641 240,167.5C 253.513,200.521 267.013,233.521 280.5,266.5C 266.873,268.482 252.873,269.149 238.5,268.5C 238.832,234.329 238.498,200.329 237.5,166.5 Z"/></g>
<g><path style="opacity:1" fill="#d52c53" d="M 196.5,266.5 C 210.127,268.482 224.127,269.149 238.5,268.5C 252.873,269.149 266.873,268.482 280.5,266.5C 281.404,267.209 281.737,268.209 281.5,269.5C 252.833,269.5 224.167,269.5 195.5,269.5C 195.263,268.209 195.596,267.209 196.5,266.5 Z"/></g>
<g><path style="opacity:1" fill="#f3a5b6" d="M 90.5,388.5 C 108.659,389.497 126.992,389.83 145.5,389.5C 126.996,390.828 108.329,390.828 89.5,389.5C 89.6236,388.893 89.9569,388.56 90.5,388.5 Z"/></g>
<g><path style="opacity:1" fill="#eba8b7" d="M 385.5,387.5 C 386.404,388.209 386.737,389.209 386.5,390.5C 367.992,390.83 349.659,390.497 331.5,389.5C 349.864,390.153 367.864,389.487 385.5,387.5 Z"/></g>
</svg>
