<svg width="187" height="484" viewBox="0 0 187 484" fill="none" xmlns="http://www.w3.org/2000/svg">
<path d="M314.302 189.487C314.302 249.3 314.418 309.113 314.069 368.868C314.011 373.716 311.683 379.382 308.715 383.354C292.537 404.85 275.836 425.936 259.367 447.198C251.395 457.478 243.772 467.992 235.45 477.922C233.413 480.376 229.223 482.245 226.022 482.303C180.69 483.062 135.299 483.413 89.9669 483.997C85.2532 484.056 81.6452 483.179 78.6191 478.974C70.2393 467.291 61.5103 455.901 52.7813 444.453C43.5286 432.303 34.1013 420.27 24.7904 408.121C17.0507 398.015 9.07795 388.027 1.97837 377.513C0.0579943 374.651 0.407338 369.92 0.349145 366.006C0.174566 285.632 0.0581932 205.316 0 124.942C0 86.8579 0.0583069 48.7736 0.1165 10.6894C0.1165 0.584214 0.407296 0.292342 10.1256 0.292342C108.821 0.233931 207.459 0.292057 306.155 0C313.545 0 315 2.62879 315 9.40451C314.767 69.4514 314.884 129.498 314.884 189.487H314.302ZM217.992 164.954H217.119C217.119 119.685 217.061 74.4164 217.235 29.0891C217.235 23.6569 215.315 22.2549 210.31 22.3717C199.137 22.6053 187.964 22.7805 176.849 22.3132C170.099 22.0211 168.062 24.4161 168.12 31.1334C168.411 60.1055 168.237 89.0191 168.179 117.991C168.062 178.447 167.888 238.903 167.771 299.359C167.771 308.588 168.062 308.88 177.082 308.88H207.808C217.817 308.821 217.934 308.704 217.992 298.716C218.05 254.148 217.992 209.522 217.992 164.954ZM290.908 165.421H290.617V32.3017C290.617 22.4886 290.617 22.4301 280.491 22.4301C270.249 22.4301 260.007 22.7221 249.765 22.3132C243.771 22.0796 241.618 24.0071 241.676 30.2571C241.967 54.5562 241.793 78.8556 241.735 103.096C241.676 168.459 241.56 233.88 241.502 299.242C241.502 308.413 241.793 308.705 250.871 308.763C261.113 308.821 271.355 308.821 281.597 308.763C290.617 308.705 290.85 308.412 290.908 299.125V165.421ZM145.716 432.128C146.414 429.091 146.938 427.864 146.938 426.579C146.996 403.214 147.054 379.908 146.763 356.544C146.705 353.448 145.6 349.885 143.737 347.431C134.485 335.282 124.766 323.424 115.281 311.45C105.097 298.599 94.9715 285.632 84.8458 272.723C78.1536 264.195 71.694 255.433 64.6526 247.197C62.7904 244.978 59.2407 243.225 56.3893 243.05C47.6021 242.524 38.6986 242.758 29.9114 242.992C28.1656 243.05 24.9647 244.51 24.9065 245.386C24.7319 254.382 23.2772 263.961 25.7213 272.314C27.8745 279.674 34.4505 285.749 39.3387 292.174C50.6282 307.127 62.0921 321.906 73.3816 336.859C82.5761 349.009 91.5961 361.333 100.732 373.483C107.541 382.536 114.35 391.59 121.275 400.586C129.014 410.691 136.812 420.679 145.716 432.128ZM196.053 464.137C206.935 463.378 219.854 467.7 228.641 452.513C237.836 436.567 250.406 422.607 261.579 407.829C267.864 399.476 274.439 391.357 280.317 382.77C284.332 376.929 289.22 370.854 290.617 364.254C292.363 356.018 290.908 347.081 290.966 338.436C290.966 334.347 289.162 332.478 285.089 332.536C279.735 332.653 274.381 332.77 269.027 332.478C264.023 332.186 260.007 333.471 256.807 337.56C249.765 346.438 242.375 355.025 235.392 363.962C222.531 380.317 209.961 396.906 197.159 413.261C188.022 424.943 178.304 436.216 169.808 448.308C167.596 451.462 168.062 457.245 168.819 461.509C169.051 462.852 174.289 463.845 177.257 464.079C182.96 464.371 188.779 464.137 196.053 464.137ZM84.6711 218.517V218.634C102.827 218.634 120.984 218.459 139.14 218.751C144.959 218.868 146.938 216.765 146.763 211.04C146.414 199.592 146.472 188.143 146.647 176.695C146.705 171.846 145.425 169.393 140.013 169.452C103.7 169.627 67.3876 169.627 31.075 169.51C26.0122 169.51 24.0339 171.204 24.1503 176.403C24.3831 187.851 24.4412 199.3 24.0338 210.749C23.8011 216.999 26.3615 218.751 32.2972 218.634C49.7551 218.342 67.2131 218.517 84.6711 218.517ZM84.6711 71.3789C103.06 71.3205 121.391 71.2621 139.78 71.3789C144.319 71.4374 146.647 70.2106 146.531 65.0704C146.298 52.9208 146.298 40.7714 146.531 28.6802C146.647 23.54 144.261 22.3717 139.722 22.3717C103.468 22.4301 67.155 22.43 30.9006 22.2547C25.7796 22.2547 23.9174 24.1824 24.0338 29.2642C24.2666 40.7128 24.4412 52.1614 24.0338 63.5517C23.8011 69.8601 26.3614 71.4958 32.2389 71.4374C49.7551 71.2038 67.2131 71.3789 84.6711 71.3789ZM85.1367 144.802C103.293 144.802 121.449 144.685 139.547 144.861C144.494 144.919 146.763 143.4 146.647 138.085C146.356 126.169 146.414 114.253 146.589 102.337C146.647 97.6056 144.959 95.6779 140.129 95.6779C103.817 95.7948 67.5623 95.7947 31.2497 95.6195C25.605 95.6195 24.0921 97.9562 24.1503 103.213C24.3831 114.428 24.4994 125.643 24.0921 136.858C23.8593 142.991 25.896 145.036 32.0645 144.919C49.7553 144.568 67.446 144.802 85.1367 144.802ZM26.4196 314.955C25.6049 315.364 24.732 315.714 23.9173 316.123C23.9173 332.186 23.6847 348.249 24.0921 364.312C24.1503 367.466 26.4196 370.796 28.2818 373.717C30.9005 377.805 34.1012 381.485 37.0108 385.399C54.2942 408.296 71.6942 431.193 88.8612 454.149C93.924 460.925 99.5685 465.247 108.647 464.137C114.582 463.378 120.751 464.137 126.745 463.962C129.829 463.845 132.913 463.144 138.558 462.385C100.325 411.976 63.3723 363.495 26.4196 314.955ZM168.702 411.742C189.477 384.814 209.03 359.581 228.99 333.763C226.953 333.12 226.139 332.595 225.324 332.595C208.099 332.536 190.932 332.595 173.707 332.42C168.353 332.361 167.771 335.574 167.771 339.721C167.829 361.216 167.829 382.653 167.887 404.149C167.887 405.901 168.237 407.712 168.702 411.742ZM144.319 310.457C145.017 310.165 145.774 309.873 146.472 309.522C146.647 307.069 146.88 304.674 146.88 302.221C146.88 287.735 146.88 273.249 146.763 258.763C146.589 240.714 149.033 242.758 130.818 242.641C119.529 242.583 108.239 242.641 97.008 242.641L95.7862 244.744C111.964 266.707 128.141 288.611 144.319 310.457Z" fill="#F8F8F8"/>
</svg>
