<?xml version="1.0" encoding="UTF-8"?>
<svg id="Layer_1" data-name="Layer 1" xmlns="http://www.w3.org/2000/svg" xmlns:xlink="http://www.w3.org/1999/xlink" viewBox="0 0 149 153">
  <defs>
    <style>
      .cls-1 {
        fill: none;
      }

      .cls-2 {
        fill: #1d1d1b;
      }

      .cls-3 {
        fill: #d8d8d8;
      }

      .cls-4 {
        fill: #fce801;
      }

      .cls-5 {
        clip-path: url(#clippath);
      }
    </style>
    <clipPath id="clippath">
      <rect class="cls-1" x="19.46" y="24.34" width="110.07" height="103.42"/>
    </clipPath>
  </defs>
  <polygon class="cls-4" points="86.2 24.33 19.46 24.44 19.68 103.85 37.48 127.76 68.95 127.76 86.3 103.96 86.2 24.33"/>
  <g class="cls-5">
    <path class="cls-3" d="M83.66,76.81c-.91.31-1.93.48-3.07.48-.43,0-.84-.03-1.24-.08-1.2.65-2.63,1.03-4.3,1.03-2.12,0-3.85-.6-5.21-1.59-.84.43-1.79.73-2.85.86-1.51,2.13-2.57,4.76-2.75,7.65.48.7.83,1.49,1.11,2.3,1.92,1.95,2.79,4.8,2.61,7.57,2.59,2.98,5.87,4.87,7.65,4.87s5.19-1.94,7.8-5.01c-.18-3.18,1.01-6.45,3.58-8.35,0-.16.03-.32.03-.49,0-3.58-1.37-6.81-3.34-9.26"/>
    <path class="cls-3" d="M89.57,68.73c-.15-.63-.33-1.25-.57-1.84-1.71-.18-3.13-.76-4.28-1.62-.78.21-1.62.34-2.55.34-2.61,0-4.66-.89-6.12-2.28-.02,0-.04,0-.07,0-1.46,1.34-3.46,2.19-6.01,2.19-.56,0-1.08-.05-1.59-.13-1.28.77-2.84,1.23-4.7,1.23-.62,0-1.2-.06-1.76-.15-.22.5-.41,1.01-.57,1.53,3.72,1.5,5.5,5.31,5.33,9.04.1,0,.19-.02.29-.02,1.49,0,2.79.29,3.91.8.92.2,1.76.52,2.5.95.78-.21,1.63-.33,2.56-.33s1.79.12,2.58.33c1.21-.65,2.65-1.04,4.35-1.04.49,0,.95.04,1.4.1-.19-3.74,1.58-7.58,5.29-9.1"/>
    <path class="cls-3" d="M112.14,67.65c-.02-.07-.04-.13-.06-.19-1.25-.09-2.36-.39-3.33-.86-1.13-.04-2.14-.25-3.05-.6-.68.15-1.42.24-2.21.24-2.07,0-3.78-.57-5.13-1.49-.86-.19-1.64-.47-2.34-.86-1.02.39-2.17.62-3.47.62-.56,0-1.09-.05-1.59-.13-.57.34-1.21.61-1.89.82.04.21.04.42.06.63,3.44,2.25,4.62,6.81,3.55,10.67.27.09.55.18.8.3.93.2,1.76.52,2.5.95.79-.21,1.63-.33,2.56-.33s1.79.13,2.58.34c1.09-.58,2.36-.94,3.83-1.01,0-4.14,2.41-8.27,7.18-9.09"/>
    <path class="cls-2" d="M113.04,86.02h1.54c-.24-1.08-.47-2.11-.7-3.14l-.14.02c-.23,1.02-.45,2.03-.7,3.12M92.4,86.01h1.54c-.25-1.09-.48-2.11-.71-3.14h-.13c-.23,1.03-.47,2.07-.71,3.14M94.25,77.02c1.04,0,2.04.09,3.03-.02,2.22-.24,4.42-.56,6.63-.88.21-.03.56-.27.57-.42.05-1.31.03-2.62.03-4-1.23.25-2.36.52-3.51.71-2.22.36-4.39,1.32-6.75.6v4.02ZM66.77,99.18c.11.1.17.16.24.22,2.75,1.93,5.5,3.85,8.24,5.79.34.24.54.16.83-.05,2.65-1.87,5.3-3.74,7.96-5.6.15-.1.28-.22.43-.35-.53-.79-1.03-1.54-1.58-2.36-1.67,2.82-3.89,4.71-7.27,4.71-3.38,0-5.58-1.92-7.25-4.73-.55.82-1.06,1.58-1.61,2.38M110.23,68.42c-.32-.1-.46-.16-.6-.19-3-.59-6-1.19-9-1.76-2.36-.45-4.71-1.19-7.13-.3-.4.15-.85.18-1.27.27-.16.04-.3.1-.62.2,1.25.24,2.3.44,3.35.65.75.15,1.14.51,1.15,1.05.01.56-.36.93-1.11,1.1-.26.06-.51.12-.75.18v1.19c1.05.25,2.05.53,3.16.25,1.68-.43,3.39-.71,5.09-1.06,2.52-.51,5.03-1.02,7.73-1.58M67.4,71.64c0,1.28.04,2.44-.01,3.6-.03.58.17.79.72.92,2.7.64,5.45.89,8.22.83,2.36-.04,4.69-.28,6.98-.89.22-.06.56-.28.56-.43.05-1.29.03-2.58.03-3.92-.27.03-.45.04-.63.07-1.63.33-3.28.6-4.89,1.02-1.84.48-3.62.48-5.45-.02-1.78-.48-3.6-.78-5.52-1.18M62.28,68.33s0,.07.01.11c.19.05.39.1.58.14,4.02.84,8.04,1.69,12.06,2.52.45.09.96.1,1.41,0,3.11-.61,6.22-1.25,9.33-1.88,1.25-.25,2.5-.51,3.92-.8-.25-.1-.33-.14-.42-.16-4.41-.86-8.83-1.72-13.24-2.56-.24-.04-.5-.02-.74.03-3.38.67-6.76,1.35-10.13,2.03-.93.19-1.86.38-2.78.57M83.9,78.12c-5.55,1.31-11,1.3-16.46.02-.02.19-.05.31-.03.42.17,1.25-.1,2.24-1.41,2.75-.52.2-.73.68-.69,1.29.05.86.01,1.74.01,2.6,0,1.1.14,1.32,1.18,1.7.27.1.57.16.86.21.76.13,1.01.41,1.07,1.17.08,1.02.13,2.05.3,3.06.39,2.28,1.12,4.43,2.69,6.2,2.15,2.42,5.68,2.66,7.99.41.85-.82,1.52-1.89,2.04-2.96,1-2.03,1.35-4.25,1.4-6.51.02-1,.24-1.2,1.21-1.4.44-.09.87-.27,1.28-.45.46-.2.66-.55.64-1.09-.04-1.23,0-2.47-.02-3.7,0-.82-.06-.86-.89-.92-.84-.07-1.16-.41-1.18-1.27-.01-.48,0-.95,0-1.52M94.53,79.07c.07.35.12.61.18.88.49,2.23.99,4.46,1.48,6.69.22.98-.18,1.48-1.19,1.49-1.21.01-2.42.01-3.63,0-1.05-.01-1.44-.51-1.21-1.55.23-1.07.45-2.15.73-3.2.98-3.64,1.55-7.32,1.28-11.1-.04-.57,0-1.14,0-1.71,0-.17-.04-.33-.06-.53-2.08.43-4.11.84-6.12,1.25,0,2.44,0,4.79.01,7.15,0,.2.14.53.28.58,1.36.42,1.74,1.44,1.76,2.7.02,1.39,0,2.79,0,4.18,0,.81-.3,1.5-.91,1.98-.5.39-1.06.72-1.64.97-.41.18-.58.34-.62.81-.09,1.02-.11,2.1-.48,3.03-.58,1.46-.28,2.6.69,3.72.52.6.78,1.56,1.41,1.89.65.34,1.6.13,2.42.14,3.19.04,6.1.88,8.46,3.14.6.58,1.1,1.26,1.68,1.93,2.02-1.42,4.04-2.85,6.08-4.28-.84-1.21-1.61-2.34-2.42-3.45-.34-.47-.45-.94-.27-1.48.71-2,1.03-4.07,1.09-6.18.02-.59.36-.89.93-1.01.49-.1.97-.24,1.43-.42.51-.2.75-.57.72-1.18-.05-1.21-.01-2.42-.02-3.63,0-.89,0-.89-.91-.96-.8-.07-1.13-.42-1.16-1.23-.01-.5,0-.99,0-1.56-3.31.83-6.59,1.08-9.98.95M50.89,107.58c.11-.49.19-.98.33-1.46,1.26-4.3,4.27-6.63,8.54-7.43,1.36-.25,2.77-.22,4.16-.24.6-.01,1.01-.14,1.33-.69.56-.94,1.2-1.84,1.83-2.74.23-.33.25-.6.17-1-.32-1.49-.59-3-.83-4.5-.05-.33-.15-.49-.48-.63-.6-.27-1.19-.58-1.72-.97-.67-.51-.98-1.23-.97-2.09.01-1.05.06-2.11-.01-3.15-.1-1.39.5-2.38,1.61-3.1.35-.23.47-.48.47-.89-.02-2.47-.01-4.93-.01-7.47-1.41-.3-2.86-.61-4.3-.91-1.36-.29-2.73-.57-4.09-.85-.78-.16-1.11-.5-1.11-1.08,0-.59.34-.92,1.12-1.07,6.11-1.23,12.22-2.46,18.33-3.68.26-.05.55-.04.81.01,3.23.62,6.45,1.26,9.69,1.86.4.07.84-.02,1.25-.1,2.98-.59,5.96-1.2,8.94-1.78.26-.05.55-.02.81.03,6.25,1.21,12.51,2.43,18.76,3.65.07.01.13.02.2.04.57.11.99.39,1,1.03.01.63-.39.93-.96,1.07-.94.23-.93.24-.93,1.17,0,1.39.08,2.79-.02,4.18-.18,2.54.48,4.94,1.02,7.36.33,1.49.67,2.98,1,4.48.22,1.03-.17,1.53-1.24,1.54-1.19,0-2.38.01-3.56,0-1.06-.01-1.46-.49-1.23-1.52.62-2.79,1.25-5.57,1.87-8.36.05-.24.11-.49.11-.74,0-2.38,0-4.75,0-7.13,0-.09-.02-.18-.04-.36-2.05.41-4.07.82-6.12,1.24v7.67c1.77.37,2.09,1.65,2.04,3.21-.04,1.12-.06,2.24,0,3.36.09,1.46-.62,2.38-1.82,3.02-.2.11-.41.24-.62.28-.59.11-.68.48-.76,1.01-.22,1.46-.51,2.92-.84,4.36-.09.4-.07.68.17,1,.67.92,1.33,1.86,1.96,2.81.23.35.5.46.9.46,1.89-.02,3.79-.04,5.65.48,4.56,1.28,7.37,4.79,7.59,9.52.03.75-.36,1.29-.98,1.34-.59.04-1.04-.39-1.11-1.06-.54-5.28-3.77-8.12-9.07-8.25-2-.05-3.66.36-5.21,1.65-1.45,1.21-3.08,2.21-4.61,3.28.14.87.28,1.69.41,2.52.04.25.05.5.04.75-.03.65-.42,1.08-.99,1.1-.6.02-.97-.41-1.07-1.09-.15-.99-.22-2.03-.58-2.94-1.29-3.25-3.94-4.75-7.26-5.15-1.29-.16-2.6-.09-3.9-.08-.27,0-.56.16-.79.33-3.07,2.15-6.14,4.3-9.2,6.46-.8.56-1.03.56-1.84,0-3.01-2.11-6.03-4.21-9.03-6.34-.48-.34-.94-.48-1.52-.47-1.9.02-3.79-.05-5.63.59-3.36,1.15-5.43,3.84-5.58,7.36-.02.6-.15,1.11-.78,1.29-.62.18-.98-.21-1.29-.66v-1.51Z"/>
    <path class="cls-2" d="M86.3,41.29c-23.84,0-43.23,19.4-43.23,43.23s19.39,43.24,43.23,43.24,43.23-19.4,43.23-43.24-19.39-43.23-43.23-43.23M86.3,42.89c22.96,0,41.63,18.68,41.63,41.63s-18.68,41.63-41.63,41.63-41.63-18.68-41.63-41.63,18.68-41.63,41.63-41.63"/>
  </g>
</svg>