<?xml version="1.0" encoding="UTF-8"?>
<svg id="Layer_1" data-name="Layer 1" xmlns="http://www.w3.org/2000/svg" viewBox="0 0 149 153">
  <defs>
    <style>
      .cls-1 {
        fill: #1d1d1b;
      }

      .cls-2 {
        fill: #ffea00;
      }

      .cls-3 {
        fill: #fff;
      }

      .cls-4 {
        fill: #dadada;
      }
    </style>
  </defs>
  <path class="cls-1" d="M110.24,112.44h1.97v-3.17h-1.97v3.17ZM109.17,110.85c0-.64.02-1.28,0-1.92-.02-.54.25-.75.76-.75.89,0,1.78,0,2.67,0,.46,0,.73.2.73.7,0,1.31,0,2.61,0,3.92,0,.48-.23.7-.72.69-.89-.01-1.78-.01-2.67,0-.52,0-.77-.2-.76-.74.02-.64,0-1.28,0-1.92"/>
  <g>
    <polygon class="cls-2" points="17.48 24.44 17.7 104.28 35.6 127.89 66.79 127.67 84.69 104.39 84.58 24.33 17.48 24.44"/>
    <g>
      <path class="cls-3" d="M108.99,97.87c-8.05-1.9-25.32-5.5-26.6-6.78-1.24,1.24-18.6,4.87-26.67,6.77-1.11.26-2.13.87-2.98,1.68,6.05,10.06,17.07,16.81,29.65,16.81s23.58-6.73,29.63-16.78c-.87-.82-1.92-1.44-3.04-1.71"/>
      <path class="cls-1" d="M111.8,99.93c.07-.12.16-.24.23-.36,0,0,0,0-.01-.01-.07.12-.14.25-.22.37"/>
      <path class="cls-1" d="M109.15,97.22c-1.81-.43-4.07-.93-6.52-1.49-3.72-.84-8.76-1.97-12.83-2.99v1.37c3.14.78,7.27,1.73,12.54,2.92,2.44.55,4.71,1.06,6.51,1.49,1.01.24,1.99.83,2.82,1.64.24-.38.48-.77.7-1.17-.96-.87-2.07-1.5-3.22-1.77"/>
      <path class="cls-1" d="M75.17,92.68c-3.95.98-8.88,2.1-12.77,2.97-2.56.58-4.94,1.12-6.82,1.56-1.13.27-2.23.89-3.16,1.75.23.39.46.78.7,1.17.81-.8,1.78-1.38,2.77-1.62,1.87-.44,4.25-.98,6.8-1.56,5.25-1.18,9.36-2.13,12.48-2.9v-1.37Z"/>
      <rect class="cls-4" x="75.08" y="87.43" width="14.63" height="17.62"/>
      <path class="cls-1" d="M90.38,86.77h-15.96v18.95h15.96v-18.95ZM89.05,104.39h-13.3v-16.29h13.3v16.29Z"/>
      <path class="cls-3" d="M82.06,117.27h1.79l5.94-20.14c-.87,1.57-2.91,3.93-7.4,3.93-3.88,0-5.94-1.77-6.98-3.27l5.65,19.22,1,.25Z"/>
      <path class="cls-1" d="M89.71,95.66c-.16.58-1.57,4.74-7.31,4.74s-7.15-4.16-7.31-4.74v2.76c1.19,1.58,3.38,3.31,7.31,3.31s6.12-1.73,7.31-3.31v-2.76Z"/>
      <path class="cls-3" d="M97.03,95.08l-6.65-1.66-6.72,23.57c1.45-.05,2.88-.18,4.28-.4l10.41-13.53-2.66-2.66,3.32-1.66-1.99-3.66Z"/>
      <path class="cls-1" d="M96.82,100.58l3.12-1.56-2.47-4.52-7.56-1.89-6.58,24.39c.47-.01.93-.03,1.4-.06l6.11-22.72,5.74,1.43,1.52,2.79-3.53,1.77,2.91,2.91-9.35,13.42c.65-.11,1.29-.9,1.93-1.05l9.17-12.5-2.41-2.41Z"/>
      <path class="cls-3" d="M74.42,93.42l-6.65,1.66-1.99,3.66,3.32,1.66-2.66,2.66,10.41,13.53c1.4.22,2.83.35,4.28.4l-6.72-23.57Z"/>
      <path class="cls-1" d="M67.31,103.12l2.91-2.91-3.53-1.77,1.52-2.79,5.74-1.44,6.11,22.72c.46.03.93.05,1.4.06l-6.58-24.38-7.56,1.89-2.47,4.52,3.12,1.56-2.41,2.41,9.16,12.49c.64.15,1.28.94,1.93,1.05l-9.35-13.41Z"/>
      <path class="cls-3" d="M82.4,91.42c-5.56,0-10.93-7.46-11.27-13.35-.02-.35-.31-.63-.66-.63-.03,0-.05,0-.08,0-.34-.03-1.28-.31-1.28-.67v-6.65c0-.37.96,2,1.33,2s-.66-3.99-.66-3.99c0-6.23,6.4-11.3,12.63-11.3s12.63,5.07,12.63,11.3c0,0-1.03,3.99-.66,3.99s1.33-2.36,1.33-2v6.65c0,.35-.94.64-1.28.67-.03,0-.05,0-.08,0-.35,0-.65.28-.66.63-.34,5.88-5.71,13.35-11.27,13.35"/>
      <path class="cls-1" d="M94.37,76.79s-.02,0-.03,0h0c-.7,0-1.28.55-1.33,1.25-.36,6.18-5.81,12.72-10.61,12.72s-10.25-6.54-10.6-12.72c-.04-.71-.62-1.25-1.33-1.25-.01,0-.02,0-.03,0-.73,0-1.33-.6-1.33-1.33v1.33c0,.73.6,1.33,1.33,1.33.01,0,.02,0,.03,0,.37,6.47,6.14,13.97,11.93,13.97s11.56-7.5,11.93-13.97c.01,0,.02,0,.04,0,.73,0,1.33-.6,1.33-1.33v-1.33c0,.73-.6,1.33-1.33,1.33"/>
      <path class="cls-3" d="M69.96,71.75c-.49-1.72-.98-4.25-.98-7.55,0-8.3,3.95-12.34,12.08-12.34,4.69,0,7.55.9,9.27,2.92l.2.23h.31c3.34,0,4.97,3.01,4.97,9.19,0,3.02-.43,5.45-.9,7.18,0-2.49-.13-5.5-2.08-8.92-.46-.82-1.1-1.23-1.88-1.23-.88,0-1.83.52-3.03,1.19-1.93,1.07-4.58,2.52-8.33,2.52s-5.42-.86-6.53-1.38c-.5-.23-.87-.4-1.24-.4-1.06,0-1.2,1.15-1.34,2.37-.3,2.46-.41,4.46-.51,6.23"/>
      <path class="cls-1" d="M81.07,51.2c-10.56,0-12.75,6.67-12.75,13,0,7,2.11,10.93,2.11,10.93.22-2.55.23-5.61.7-9.52.16-1.34.29-1.79.68-1.79.78,0,2.6,1.79,7.77,1.79,6.14,0,9.4-3.71,11.37-3.71.51,0,.94.26,1.3.89,2.82,4.93,1.67,9.24,2.11,12.34,0,0,2.11-4.16,2.11-10.93,0-4.1-.7-9.85-5.63-9.85-2.05-2.4-5.48-3.15-9.78-3.15M81.07,52.52c4.48,0,7.18.83,8.77,2.68l.4.46h.62c1.06,0,4.3,0,4.3,8.53,0,.73-.03,1.43-.07,2.09-.32-1.3-.83-2.69-1.66-4.15-.74-1.29-1.75-1.56-2.46-1.56-1.05,0-2.07.56-3.36,1.27-1.97,1.09-4.43,2.44-8.01,2.44s-5.19-.83-6.25-1.32c-.56-.26-1-.46-1.52-.46-1.65,0-1.85,1.71-2,2.96-.04.29-.07.57-.1.84-.04-.66-.07-1.36-.07-2.1,0-7.96,3.63-11.67,11.42-11.67"/>
      <path class="cls-1" d="M82.4,45.88c-19.8,0-35.91,16.11-35.91,35.91s16.11,35.91,35.91,35.91,35.91-16.11,35.91-35.91-16.11-35.91-35.91-35.91M82.4,47.2c19.07,0,34.58,15.51,34.58,34.58s-15.51,34.57-34.58,34.57-34.58-15.51-34.58-34.57,15.51-34.58,34.58-34.58"/>
      <rect class="cls-4" x="100.79" y="96.45" width="26.91" height="17.51"/>
      <rect class="cls-3" x="112.14" y="93.71" width="4.15" height="5.67"/>
      <path class="cls-1" d="M111.02,96.01v1.11h-9.76v16.41h25.88v-16.36h-9.78v-1.3h2.11c2.59,0,5.18.02,7.78-.02.84-.01,1.23.21,1.23,1.15-.03,5.56-.03,11.12,0,16.67,0,.91-.35,1.17-1.21,1.17-8.73-.02-17.46-.02-26.19,0-.91,0-1.18-.36-1.18-1.21.02-5.56.01-11.12,0-16.67,0-.62.12-1.1.87-1.1,3.34.01,6.68.02,10.02.04.06,0,.12.05.23.11"/>
      <path class="cls-1" d="M129.18,111.92c.38-.5.65-.83.86-1.18.11-.18.2-.42.2-.64.01-5.11.01-10.22,0-15.33,0-.09-.06-.19-.12-.38h-12.78v-1.26h12.77c1.37,0,1.41.04,1.41,1.46v15.84c0,1.69-.15,1.81-2.33,1.49"/>
      <rect class="cls-1" x="106.05" y="108.89" width="17.52" height="1.15"/>
      <rect class="cls-1" x="111.36" y="101.34" width="12.26" height="1.12"/>
      <rect class="cls-1" x="111.34" y="105.13" width="12.23" height="1.12"/>
      <path class="cls-1" d="M110.33,107.37h-1.45c-.04-.63-.08-1.23-.13-1.95h-3.69c-.03.57-.06,1.21-.1,2.18-.6-.24-1.32-.31-1.46-.63-.52-1.21.04-2.97,1.02-3.08,1.55-.17,3.14-.15,4.69.02.42.05.89.88,1.08,1.44s.04,1.23.04,2.01"/>
      <path class="cls-1" d="M111.05,93.13v1.24h-3.53c-.68,0-1.37-.03-2.04,0-.5.02-1.08-.22-1.39.51-.06.15-.67.08-1.01.1-.29-1.7-.16-1.86,1.36-1.86h6.62"/>
      <path class="cls-1" d="M106.5,99.5c-.64-.01-1.28.6-1.32,1.23-.03.7.55,1.34,1.26,1.37.72.03,1.33-.54,1.34-1.26.02-.71-.58-1.33-1.28-1.34M106.49,98.45c1.32-.01,2.34,1.01,2.36,2.34.02,1.31-1.03,2.4-2.31,2.4-1.35,0-2.41-1.05-2.41-2.4,0-1.3,1.03-2.33,2.37-2.34"/>
    </g>
  </g>
</svg>