<?xml version="1.0" encoding="UTF-8"?>
<svg id="Layer_1" data-name="Layer 1" xmlns="http://www.w3.org/2000/svg" viewBox="0 0 149 153">
  <defs>
    <style>
      .cls-1 {
        fill: #1d1d1b;
      }

      .cls-2 {
        fill: #ffea00;
      }

      .cls-3 {
        fill: #fff;
      }

      .cls-4 {
        fill: #dadada;
      }
    </style>
  </defs>
  <polygon class="cls-2" points="19.08 24.44 19.3 104.28 37.2 127.89 68.39 127.67 86.29 104.39 86.18 24.33 19.08 24.44"/>
  <path class="cls-1" d="M47.19,59.06h-1.67s.02,15.07.01,15.07v-.02h0c-.1-.01-3.36,21.75-3.36,21.75h8.37l-3.35-21.75v-15.06Z"/>
  <path class="cls-1" d="M46.26,76.83c-.92,0-1.67-.75-1.67-1.67s.75-1.67,1.67-1.67,1.67.75,1.67,1.67-.75,1.67-1.67,1.67"/>
  <path class="cls-3" d="M108.59,111.97c-6.59-1.55-20.72-4.5-21.76-5.55-1.02,1.02-15.22,3.98-21.82,5.54-.91.21-1.74.72-2.44,1.38,4.95,8.23,13.97,13.75,24.26,13.75s19.29-5.51,24.25-13.73c-.71-.67-1.57-1.18-2.48-1.4"/>
  <path class="cls-1" d="M110.89,113.66c.06-.1.13-.19.19-.29,0,0,0,0,0,0-.06.1-.12.2-.18.3"/>
  <path class="cls-1" d="M108.72,111.44c-1.48-.35-3.33-.76-5.34-1.22-3.04-.69-7.17-1.61-10.5-2.45v1.12c2.57.64,5.95,1.42,10.26,2.39,2,.45,3.85.87,5.32,1.22.83.2,1.63.68,2.31,1.34.2-.31.39-.63.58-.95-.78-.71-1.69-1.23-2.63-1.45"/>
  <path class="cls-1" d="M80.91,107.72c-3.23.8-7.26,1.71-10.45,2.43-2.1.47-4.04.91-5.58,1.28-.93.22-1.82.73-2.59,1.43.19.32.38.64.57.95.66-.65,1.45-1.13,2.27-1.32,1.53-.36,3.48-.8,5.57-1.27,4.3-.97,7.66-1.74,10.21-2.37v-1.12Z"/>
  <rect class="cls-4" x="80.84" y="103.43" width="11.97" height="14.42"/>
  <path class="cls-1" d="M93.36,102.89h-13.06v15.51h13.06v-15.51ZM92.27,117.3h-10.88v-13.33h10.88v13.33Z"/>
  <path class="cls-3" d="M86.56,127.84h1.46l4.86-16.48c-.71,1.29-2.38,3.22-6.05,3.22-3.18,0-4.86-1.45-5.71-2.67l4.62,15.73.82.2Z"/>
  <path class="cls-1" d="M92.81,110.16c-.13.47-1.29,3.88-5.99,3.88s-5.85-3.4-5.99-3.88v2.26c.98,1.29,2.77,2.71,5.99,2.71s5.01-1.42,5.99-2.71v-2.26Z"/>
  <path class="cls-3" d="M98.8,109.69l-5.44-1.36-5.5,19.29c1.19-.04,2.36-.15,3.51-.33l8.52-11.07-2.17-2.17,2.72-1.36-1.63-2.99Z"/>
  <path class="cls-1" d="M98.63,114.19l2.55-1.27-2.02-3.7-6.19-1.55-5.38,19.95c.38-.01.76-.03,1.14-.05l5-18.59,4.69,1.17,1.25,2.29-2.89,1.45,2.38,2.38-7.65,10.98c.53-.09,1.06-.74,1.58-.86l7.5-10.23-1.97-1.97Z"/>
  <path class="cls-3" d="M80.3,108.33l-5.44,1.36-1.63,2.99,2.72,1.36-2.17,2.18,8.52,11.07c1.15.18,2.32.28,3.51.32l-5.5-19.29Z"/>
  <path class="cls-1" d="M74.49,116.27l2.38-2.38-2.89-1.44,1.25-2.29,4.69-1.18,5,18.59c.38.03.76.04,1.14.05l-5.38-19.95-6.19,1.55-2.02,3.7,2.55,1.27-1.97,1.97,7.5,10.22c.52.12,1.05.77,1.58.86l-7.65-10.97Z"/>
  <path class="cls-3" d="M86.83,106.69c-4.55,0-8.94-6.11-9.22-10.92-.01-.29-.25-.51-.54-.51-.02,0-.04,0-.07,0-.28-.02-1.05-.26-1.05-.54v-5.44c0-.3.79,1.63,1.09,1.63s-.54-3.27-.54-3.27c0-5.1,5.24-9.25,10.34-9.25s10.34,4.15,10.34,9.25c0,0-.84,3.27-.54,3.27s1.09-1.93,1.09-1.63v5.44c0,.29-.77.52-1.05.54-.02,0-.04,0-.07,0-.29,0-.53.23-.54.51-.28,4.81-4.68,10.92-9.22,10.92"/>
  <path class="cls-1" d="M96.62,94.72s-.02,0-.03,0h0c-.58,0-1.05.45-1.08,1.03-.29,5.06-4.75,10.4-8.68,10.4s-8.38-5.35-8.68-10.4c-.03-.58-.51-1.03-1.09-1.03,0,0-.02,0-.03,0-.6,0-1.09-.49-1.09-1.09v1.09c0,.6.49,1.09,1.09,1.09,0,0,.02,0,.03,0,.31,5.3,5.03,11.43,9.76,11.43s9.46-6.13,9.76-11.43c.01,0,.02,0,.03,0,.6,0,1.09-.49,1.09-1.09v-1.09c0,.6-.49,1.09-1.09,1.09"/>
  <path class="cls-3" d="M76.65,90.6c-.4-1.41-.8-3.48-.8-6.18,0-6.79,3.23-10.1,9.89-10.1,3.84,0,6.18.73,7.59,2.39l.17.19h.25c2.74,0,4.06,2.46,4.06,7.52,0,2.47-.35,4.46-.74,5.88,0-2.03-.1-4.5-1.7-7.3-.38-.67-.9-1.01-1.54-1.01-.72,0-1.5.43-2.48.97-1.58.87-3.75,2.06-6.82,2.06s-4.44-.71-5.34-1.13c-.41-.19-.71-.33-1.01-.33-.86,0-.98.94-1.1,1.94-.24,2.01-.34,3.65-.42,5.09"/>
  <path class="cls-1" d="M85.74,73.78c-8.64,0-10.43,5.45-10.43,10.64,0,5.73,1.73,8.95,1.73,8.95.18-2.09.19-4.59.58-7.79.13-1.1.24-1.46.56-1.46.64,0,2.13,1.46,6.35,1.46,5.02,0,7.69-3.04,9.3-3.04.42,0,.77.21,1.07.73,2.3,4.03,1.36,7.56,1.73,10.1,0,0,1.73-3.4,1.73-8.95,0-3.36-.58-8.06-4.61-8.06-1.68-1.97-4.49-2.58-8-2.58M85.74,74.87c3.67,0,5.88.68,7.17,2.2l.32.38h.5c.87,0,3.52,0,3.52,6.98,0,.6-.02,1.17-.06,1.71-.26-1.06-.68-2.2-1.36-3.4-.61-1.06-1.43-1.28-2.01-1.28-.86,0-1.69.46-2.75,1.04-1.62.89-3.63,2-6.55,2s-4.25-.68-5.11-1.08c-.46-.21-.82-.38-1.24-.38-1.35,0-1.52,1.4-1.64,2.42-.03.24-.06.47-.08.69-.04-.54-.06-1.11-.06-1.71,0-6.52,2.97-9.55,9.35-9.55"/>
  <path class="cls-1" d="M86.83,69.43c-16.2,0-29.38,13.18-29.38,29.38s13.18,29.38,29.38,29.38,29.38-13.18,29.38-29.38-13.18-29.38-29.38-29.38M86.83,70.51c15.6,0,28.29,12.69,28.29,28.29s-12.69,28.29-28.29,28.29-28.29-12.69-28.29-28.29,12.69-28.29,28.29-28.29"/>
  <path class="cls-1" d="M86.42,40.62l-43.5,18.4,25.1,10.04h36.81l25.1-10.04-43.5-18.4ZM86.42,42.43l39.1,16.54-21.02,8.41h-36.16l-21.02-8.41,39.1-16.54Z"/>
  <path class="cls-3" d="M109,79.86c-2.52-2.64-8.64-6.62-22.59-6.62s-20.06,3.98-22.58,6.62v-15.63c.53-.99,4.78-7.72,22.58-7.72s22.05,6.71,22.59,7.72v15.63Z"/>
  <path class="cls-1" d="M86.42,55.67c-20.08,0-23.42,8.37-23.42,8.37v18.4s3.35-8.37,23.42-8.37,23.42,8.37,23.42,8.37v-18.4s-3.35-8.37-23.42-8.37M86.42,57.35c16.58,0,21.02,5.89,21.75,7.1v13.56c-3.29-2.61-9.69-5.6-21.75-5.6s-18.46,2.99-21.75,5.6v-13.55c.77-1.26,5.23-7.11,21.75-7.11"/>
</svg>