<?xml version="1.0" encoding="UTF-8"?>
<svg id="Layer_1" data-name="Layer 1" xmlns="http://www.w3.org/2000/svg" viewBox="0 0 149 153">
  <defs>
    <style>
      .cls-1 {
        fill: none;
      }

      .cls-2 {
        fill: #1d1d1b;
      }

      .cls-3 {
        fill: #d8d8d8;
      }

      .cls-4 {
        fill: #fff;
      }

      .cls-5 {
        fill: #fce801;
      }
    </style>
  </defs>
  <polyline class="cls-1" points="45.21 101.18 140.17 101.18 140.17 18.33 45.21 18.33"/>
  <g>
    <polyline class="cls-5" points="9.05 104.58 27.02 128.29 58.35 128.07 76.32 104.69 76.21 24.29 8.83 24.4"/>
    <path class="cls-3" d="M34.04,65.33l19.45-.18.54-5.04-3.6-.9,1.8-1.98,27.19-13.51,26.29,12.6s2.7,2.52,2.16,2.52-2.16,1.8-2.16,1.8l-.18,4.68,20.35-.36-4.68-7.02-10.27-.36.54-4.68-4.5-3.42-27.55-13.87-31.88,15.67-.18,5.4-2.34,1.08-7.74-.36-4.68,6.84,1.44,1.08Z"/>
    <path class="cls-4" d="M117.15,102.97h-7.65v-7.2h7.65v7.2ZM117.15,88.11h-7.65v-6.75h7.65v6.75ZM49.8,102.97h-7.65v-7.2h7.65v7.2ZM49.8,88.11h-7.65v-6.75h7.65v6.75ZM122.5,72.58l-19.14.68.23-3.38.68-3.82.9-2.25v-4.5l-49.97-.9.45,13.51-19.81.9-.36,40.25h35.3s-.72-5.4-.36-10.62c.36-5.22,3.78-11.88,8.1-12.07,4.32-.18,9.18,5.22,9.55,6.12.36.9,0,10.54,0,10.54l.23,6.98,34.67-.9-.45-40.52Z"/>
    <path class="cls-3" d="M79.51,81.9c4.73,0,8.56-3.75,8.56-8.37s-3.83-8.37-8.56-8.37-8.56,3.75-8.56,8.37,3.83,8.37,8.56,8.37"/>
    <rect class="cls-3" x="96.35" y="59.75" width="7.74" height="52.22"/>
    <rect class="cls-3" x="54.75" y="59.75" width="7.74" height="52.22"/>
    <path class="cls-2" d="M104.65,71.42v-4.19c.45-.13.86-.38,1.19-.7h19.35v4.86s-.01.04-.04.04h-20.5ZM125.19,118.18H33.73v-3.75h91.46v3.75ZM37.62,91.5v-17.24h16.65v31.18c-1.18.35-2.05,1.44-2.05,2.73v3.41h-14.6v-20.08ZM33.77,71.42s-.04-.01-.04-.04v-4.86h19.35c.33.33.74.57,1.19.7v4.19h-20.5ZM38.02,59.34c.1-.15.27-.23.45-.23h9.89c.41.16.84.24,1.27.25.43,1.01,1.43,1.73,2.6,1.73v2.59h-17.21l3-4.34ZM55.08,108.17h7.11v3.41h-7.12v-3.41ZM60.14,105.33h-3.02v-37.98h3.02v37.98ZM55.07,64.49v-3.4h7.12v3.41s-7.12,0-7.12,0ZM96.74,108.17h7.11v3.41h-7.12v-3.41ZM96.73,64.49v-3.4h7.12v3.41s-7.12,0-7.12,0ZM98.78,92.77v-25.43h3.03v37.98h-3.03v-12.55ZM86.86,99.46v12.12h-14.8v-12.12c0-4.08,3.32-7.4,7.4-7.4s7.4,3.32,7.4,7.4M79.46,89.21c-5.65,0-10.24,4.6-10.24,10.25v12.12h-4.18v-3.41c0-1.29-.87-2.39-2.05-2.73v-38.22c1.18-.35,2.05-1.44,2.05-2.74v-3.4h28.85v3.4c0,1.3.87,2.39,2.05,2.74v38.22c-1.18.35-2.05,1.44-2.05,2.73v3.41h-4.18v-12.12c0-5.65-4.6-10.25-10.25-10.25M52.82,58.25l26.23-13.1c.26-.13.57-.13.83,0l26.21,13.09c-5.51,0-47.7,0-53.27,0M104.65,105.44v-31.18h16.58v37.32h-14.53v-3.41c0-1.29-.87-2.39-2.05-2.73M48.79,53.05c0-.35.2-.67.51-.83l29.75-14.86c.26-.13.57-.13.83,0l29.75,14.86c.31.16.51.47.51.83v2.54c0,.69-.72,1.14-1.34.83l-27.65-13.81c-1.06-.53-2.32-.53-3.37,0l-27.65,13.81c-.61.31-1.34-.14-1.34-.83v-2.54ZM71.89,32.78l6.92-3.46c.12-.06.26-.06.39,0l6.92,3.46v4.51l-4.97-2.48c-1.06-.52-2.32-.52-3.37,0l-5.89,2.94v-4.97ZM120.46,59.11c.18,0,.34.09.44.23l3,4.34h-17.2v-2.59c1.17,0,2.17-.71,2.6-1.73.43,0,.86-.09,1.27-.25h9.89ZM125.16,74.26c1.59,0,2.88-1.29,2.88-2.88v-5.77c0-.32-.05-.64-.15-.95h0c-.09-.28-.22-.55-.39-.79l-4.25-6.15c-.63-.92-1.68-1.46-2.79-1.46h-7.54c.04-.22.06-.44.06-.67v-2.54c0-1.44-.8-2.73-2.09-3.37l-21.93-10.95v-4.51l1,.5c.71.35,1.56.07,1.91-.64.35-.7.07-1.56-.64-1.91l-10.77-5.38c-.92-.46-2.01-.46-2.93,0l-10.77,5.38c-.7.35-.99,1.21-.64,1.91.35.7,1.21.99,1.91.64l1-.5v4.97l-21.02,10.5c-1.28.64-2.08,1.94-2.08,3.37v2.54c0,.23.02.45.06.67h-7.54c-1.11,0-2.16.55-2.79,1.46l-4.25,6.15c-.33.49-.54,1.1-.54,1.74v5.77c0,1.59,1.29,2.88,2.88,2.88h1.01v37.32h-1.11c-1.54,0-2.78,1.25-2.78,2.78v3.88c0,1.53,1.25,2.78,2.78,2.78h91.59c1.54,0,2.78-1.25,2.78-2.78v-3.88c0-1.53-1.25-2.78-2.78-2.78h-1.17v-37.32h1.08Z"/>
    <path class="cls-2" d="M79.46,80.76c-3.82,0-6.92-3.11-6.92-6.92s3.11-6.93,6.92-6.93,6.92,3.11,6.92,6.93-3.11,6.92-6.92,6.92M79.46,64.06c-5.39,0-9.77,4.38-9.77,9.77s4.38,9.77,9.77,9.77,9.77-4.38,9.77-9.77-4.38-9.77-9.77-9.77"/>
    <path class="cls-2" d="M80.88,73.22v-1.88c0-.79-.64-1.43-1.42-1.43s-1.42.64-1.42,1.43v2.47c0,.38.15.74.42,1l1.67,1.67c.56.56,1.46.56,2.01,0,.56-.56.56-1.46,0-2.01l-1.25-1.25Z"/>
    <path class="cls-2" d="M43.58,82.63h4.65v4.03h-4.65v-4.03ZM43.2,89.51h5.41c1.36,0,2.47-1.11,2.47-2.47v-4.79c0-1.36-1.11-2.47-2.47-2.47h-5.41c-1.36,0-2.47,1.11-2.47,2.47v4.79c0,1.36,1.11,2.47,2.47,2.47"/>
    <path class="cls-2" d="M43.58,97.46h4.65v4.03h-4.65v-4.03ZM40.73,101.87c0,1.36,1.11,2.47,2.47,2.47h5.41c1.36,0,2.47-1.11,2.47-2.47v-4.79c0-1.36-1.11-2.47-2.47-2.47h-5.41c-1.36,0-2.47,1.11-2.47,2.47v4.79Z"/>
    <path class="cls-2" d="M110.7,82.63h4.65v4.03h-4.65v-4.03ZM110.32,89.51h5.41c1.36,0,2.47-1.11,2.47-2.47v-4.79c0-1.36-1.11-2.47-2.47-2.47h-5.41c-1.36,0-2.47,1.11-2.47,2.47v4.79c0,1.36,1.11,2.47,2.47,2.47"/>
    <path class="cls-2" d="M110.7,97.46h4.65v4.03h-4.65v-4.03ZM110.32,104.33h5.41c1.36,0,2.47-1.11,2.47-2.47v-4.79c0-1.36-1.11-2.47-2.47-2.47h-5.41c-1.36,0-2.47,1.11-2.47,2.47v4.79c0,1.36,1.11,2.47,2.47,2.47"/>
  </g>
  <polyline class="cls-1" points="45.21 106.62 140.17 106.62 140.17 23.77 45.21 23.77"/>
</svg>