<?xml version="1.0" encoding="UTF-8"?>
<svg id="Layer_1" data-name="Layer 1" xmlns="http://www.w3.org/2000/svg" viewBox="0 0 149 153">
  <defs>
    <style>
      .cls-1 {
        fill: #1d1d1b;
      }

      .cls-2 {
        fill: #ffea00;
      }

      .cls-3 {
        fill: #dadada;
      }
    </style>
  </defs>
  <polygon class="cls-2" points="68.47 127.67 86.37 104.39 86.26 24.33 19.16 24.44 19.38 104.28 37.28 127.89 68.47 127.67"/>
  <path class="cls-3" d="M83.72,77.1c-.92.31-1.95.48-3.08.48-.43,0-.85-.03-1.25-.08-1.21.65-2.64,1.04-4.33,1.04-2.13,0-3.87-.61-5.24-1.6-.84.43-1.8.73-2.87.87-1.52,2.14-2.58,4.79-2.77,7.69.49.7.83,1.5,1.11,2.32,1.93,1.96,2.8,4.83,2.62,7.61,2.61,2.99,5.9,4.9,7.69,4.9s5.21-1.95,7.84-5.03c-.18-3.2,1.02-6.49,3.6-8.4,0-.17.03-.32.03-.49,0-3.6-1.38-6.84-3.36-9.31"/>
  <path class="cls-3" d="M89.66,68.97c-.15-.63-.33-1.25-.58-1.85-1.72-.18-3.15-.76-4.3-1.63-.78.21-1.63.34-2.56.34-2.63,0-4.68-.9-6.15-2.29-.02,0-.04,0-.07,0-1.47,1.35-3.48,2.2-6.05,2.2-.56,0-1.09-.05-1.6-.13-1.29.77-2.86,1.24-4.73,1.24-.62,0-1.21-.06-1.77-.15-.22.5-.42,1.01-.57,1.54,3.74,1.51,5.53,5.34,5.36,9.09.1,0,.19-.02.29-.02,1.5,0,2.81.29,3.94.8.93.2,1.77.52,2.51.95.79-.21,1.64-.33,2.58-.33s1.8.12,2.59.34c1.22-.65,2.66-1.05,4.37-1.05.49,0,.96.04,1.41.1-.19-3.76,1.59-7.62,5.32-9.15"/>
  <path class="cls-3" d="M112.35,67.89c-.02-.07-.04-.13-.06-.2-1.26-.09-2.37-.39-3.34-.86-1.13-.04-2.15-.26-3.07-.6-.69.15-1.43.24-2.22.24-2.09,0-3.8-.57-5.16-1.5-.86-.19-1.65-.47-2.35-.86-1.02.4-2.18.62-3.49.62-.56,0-1.09-.05-1.6-.13-.57.34-1.21.61-1.9.82.04.21.04.43.06.64,3.46,2.26,4.65,6.85,3.57,10.72.28.09.55.18.8.3.93.2,1.77.52,2.51.95.79-.21,1.64-.33,2.58-.33s1.8.13,2.59.34c1.09-.58,2.38-.94,3.86-1.01,0-4.17,2.42-8.32,7.22-9.14"/>
  <path class="cls-1" d="M113.25,86.35h1.55c-.24-1.09-.47-2.12-.7-3.16-.05,0-.1.02-.14.02-.23,1.02-.46,2.04-.7,3.14M92.5,86.34h1.55c-.25-1.1-.48-2.12-.71-3.16h-.13c-.23,1.04-.47,2.08-.71,3.16M94.36,77.3c1.04,0,2.06.09,3.05-.02,2.23-.24,4.45-.56,6.67-.88.21-.03.56-.27.57-.43.05-1.32.03-2.64.03-4.02-1.24.25-2.38.52-3.53.71-2.23.36-4.42,1.33-6.78.6v4.04ZM66.73,99.59c.11.1.17.17.24.22,2.77,1.94,5.53,3.87,8.29,5.82.34.24.55.16.84-.05,2.66-1.88,5.33-3.76,8-5.64.15-.1.28-.23.43-.35-.53-.79-1.03-1.55-1.59-2.37-1.68,2.83-3.91,4.74-7.31,4.73-3.4,0-5.61-1.93-7.29-4.76-.56.83-1.07,1.59-1.62,2.4M110.43,68.66c-.32-.1-.46-.16-.61-.19-3.02-.59-6.03-1.19-9.05-1.77-2.37-.45-4.73-1.19-7.17-.3-.4.15-.85.18-1.28.27-.16.04-.31.1-.63.2,1.25.24,2.31.44,3.37.65.75.15,1.14.51,1.16,1.06.01.56-.36.94-1.11,1.11-.26.06-.51.12-.76.18v1.19c1.06.26,2.06.53,3.18.25,1.69-.43,3.41-.72,5.12-1.06,2.53-.51,5.06-1.03,7.78-1.59M67.36,71.9c0,1.28.04,2.45-.01,3.62-.03.58.17.79.72.92,2.72.64,5.48.89,8.27.84,2.37-.04,4.72-.28,7.02-.89.22-.06.56-.28.57-.43.05-1.3.03-2.6.03-3.94-.28.03-.46.04-.63.07-1.64.33-3.3.6-4.92,1.03-1.85.49-3.64.48-5.48-.02-1.79-.48-3.62-.78-5.55-1.19M62.21,68.58s0,.07.01.11c.2.05.39.1.58.14,4.04.85,8.08,1.7,12.13,2.53.45.09.96.1,1.41,0,3.13-.61,6.25-1.26,9.38-1.89,1.26-.26,2.52-.51,3.94-.81-.26-.1-.33-.14-.42-.16-4.44-.86-8.87-1.73-13.31-2.58-.24-.04-.5-.02-.74.03-3.4.67-6.79,1.36-10.19,2.04-.94.19-1.87.38-2.8.57M83.95,78.42c-5.58,1.32-11.06,1.3-16.55.02-.02.2-.05.31-.03.42.17,1.25-.1,2.25-1.42,2.76-.53.2-.73.68-.69,1.29.05.87.01,1.74.01,2.62,0,1.11.14,1.33,1.19,1.71.28.1.57.16.87.21.76.13,1.01.41,1.07,1.18.08,1.03.13,2.06.3,3.08.4,2.29,1.12,4.46,2.71,6.24,2.16,2.43,5.71,2.67,8.04.42.85-.82,1.53-1.9,2.05-2.97,1-2.04,1.36-4.27,1.41-6.55.02-1,.24-1.21,1.22-1.41.44-.09.87-.27,1.29-.45.46-.2.66-.55.64-1.09-.04-1.24,0-2.48-.02-3.72,0-.82-.06-.86-.9-.93-.84-.07-1.17-.41-1.19-1.28-.01-.48,0-.96,0-1.53M94.64,79.37c.07.35.12.62.18.88.5,2.24,1,4.48,1.49,6.73.22.99-.18,1.49-1.2,1.5-1.22.01-2.44.01-3.65,0-1.05-.01-1.44-.52-1.21-1.56.23-1.08.45-2.16.73-3.22.98-3.66,1.55-7.36,1.29-11.16-.04-.57,0-1.15,0-1.72,0-.17-.04-.34-.06-.54-2.09.43-4.13.84-6.16,1.26,0,2.46,0,4.82.01,7.19,0,.2.14.54.29.58,1.36.42,1.75,1.45,1.77,2.72.02,1.4,0,2.8,0,4.2,0,.81-.3,1.51-.92,2-.5.39-1.06.72-1.65.97-.42.18-.59.34-.63.82-.09,1.03-.11,2.11-.48,3.05-.58,1.47-.28,2.61.7,3.74.52.61.78,1.57,1.41,1.9.65.34,1.61.13,2.43.14,3.21.04,6.13.88,8.5,3.15.61.58,1.11,1.27,1.69,1.94,2.03-1.43,4.06-2.86,6.11-4.3-.85-1.22-1.62-2.36-2.43-3.47-.34-.47-.46-.94-.27-1.49.71-2.01,1.03-4.09,1.09-6.22.02-.59.36-.89.93-1.02.49-.1.98-.24,1.44-.42.51-.2.75-.58.73-1.18-.05-1.22-.01-2.44-.02-3.65,0-.89,0-.89-.91-.97-.8-.07-1.14-.42-1.16-1.24-.01-.5,0-1,0-1.57-3.32.83-6.63,1.08-10.04.95M50.76,108.04c.11-.49.2-.99.34-1.47,1.27-4.32,4.29-6.67,8.59-7.47,1.36-.25,2.79-.22,4.19-.24.61-.01,1.01-.14,1.34-.69.56-.95,1.2-1.85,1.84-2.75.23-.33.25-.61.17-1.01-.32-1.5-.59-3.02-.84-4.53-.06-.34-.15-.49-.48-.64-.6-.27-1.2-.58-1.73-.97-.68-.51-.99-1.24-.98-2.11.01-1.06.06-2.12-.01-3.17-.1-1.4.5-2.4,1.62-3.12.35-.23.47-.48.47-.89-.02-2.48-.01-4.96-.01-7.51-1.42-.3-2.87-.61-4.33-.92-1.37-.29-2.74-.57-4.11-.86-.78-.17-1.12-.5-1.12-1.09,0-.59.35-.92,1.13-1.08,6.14-1.24,12.29-2.47,18.43-3.7.26-.05.55-.04.81.01,3.25.62,6.49,1.27,9.74,1.87.4.07.84-.02,1.26-.1,3-.59,5.99-1.2,8.98-1.79.26-.05.55-.02.81.03,6.29,1.22,12.58,2.44,18.86,3.67.07.01.13.02.2.04.58.11.99.4,1.01,1.03.01.64-.39.93-.96,1.08-.94.23-.94.24-.94,1.17,0,1.4.08,2.81-.02,4.2-.18,2.55.48,4.96,1.02,7.41.33,1.5.68,3,1,4.5.23,1.04-.17,1.54-1.24,1.54-1.19,0-2.39.01-3.58,0-1.07-.01-1.47-.5-1.24-1.53.62-2.8,1.25-5.6,1.88-8.4.06-.24.11-.5.11-.75,0-2.39,0-4.78,0-7.17,0-.09-.02-.18-.04-.36-2.06.42-4.09.83-6.15,1.25v7.71c1.77.37,2.11,1.66,2.05,3.23-.04,1.13-.06,2.25,0,3.38.09,1.47-.62,2.39-1.83,3.04-.2.11-.41.24-.62.28-.59.11-.68.48-.76,1.02-.22,1.47-.52,2.93-.84,4.38-.09.4-.07.68.17,1.01.68.93,1.34,1.87,1.97,2.82.23.35.5.47.91.46,1.9-.02,3.81-.04,5.68.48,4.58,1.29,7.41,4.82,7.63,9.58.03.75-.36,1.29-.99,1.34-.59.04-1.05-.39-1.11-1.06-.54-5.31-3.79-8.16-9.12-8.3-2.01-.05-3.68.37-5.24,1.66-1.46,1.22-3.1,2.22-4.63,3.3.14.87.29,1.7.41,2.54.04.25.05.5.04.75-.03.66-.42,1.09-.99,1.11-.6.02-.98-.41-1.08-1.1-.15-.99-.22-2.04-.58-2.95-1.3-3.27-3.96-4.77-7.3-5.17-1.29-.16-2.61-.09-3.92-.08-.27,0-.57.17-.8.33-3.09,2.16-6.17,4.33-9.25,6.49-.81.57-1.04.57-1.85,0-3.03-2.12-6.06-4.23-9.08-6.37-.48-.34-.95-.48-1.53-.47-1.91.02-3.81-.05-5.66.59-3.38,1.16-5.46,3.86-5.61,7.41-.02.6-.15,1.11-.79,1.3-.62.18-.99-.21-1.3-.66v-1.52Z"/>
  <path class="cls-1" d="M86.37,41.38c-23.97,0-43.47,19.5-43.47,43.47s19.5,43.47,43.47,43.47,43.47-19.5,43.47-43.47-19.5-43.47-43.47-43.47M86.37,42.99c23.08,0,41.86,18.78,41.86,41.86s-18.78,41.86-41.86,41.86-41.86-18.78-41.86-41.86,18.78-41.86,41.86-41.86"/>
</svg>